# xmcd
#
# Track frame offsets: 
#        210
#        15089
#        30612
#        44779
#        60368
#        74858
#        90084
#        105351
#        120384
#        134137
#        147472
#        161428
#        175191
#        188783
#        202737
#        216788
#        230760
#        244769
#        258500
#        273093
#        286644
#        300449
#
# Disc length: 4177 seconds
#
# Revision: 2
# Processed by: cddbd v1.5.2PL0 Copyright (c) Steve Scherf et al.
# Submitted via: ExactAudioCopyFreeDBPlugin 1.0
#
DISCID=2d104f16
DTITLE=Skillet Lickers - Volume 3: 1928-29
DYEAR=2008
DGENRE=Country
TTITLE0=Liberty
TTITLE1=Nancy Rollin
TTITLE2=Old Dan Tucker
TTITLE3=Devilish Mary (later version)
TTITLE4=Pretty Little Widow
TTITLE5=Fly Around, My Pretty Little Miss
TTITLE6=Day at the County Fair, Pt. 1 - The Skillet Lickers
TTITLE7=Day at the County Fair, Pt. 2 - The Skillet Lickers
TTITLE8=Mississippi Sawyer
TTITLE9=It Ain't Gonna Rain No Mo'
TTITLE10=Going on Down Town
TTITLE11=Flatwoods
TTITLE12=Never Seen the Like Since Gettin' Upstairs
TTITLE13=Show Me the Way to Go Home
TTITLE14=Cotton Baggin'
TTITLE15=Roving Gambler
TTITLE16=Back up and Push
TTITLE17=Smoke Behind the Clouds
TTITLE18=Four Thousand Years Ago
TTITLE19=Georgia Man
TTITLE20=Skip to My Lou, My Darling
TTITLE21=Charming Betsy
EXTD=YEAR: 2008
EXTT0=
EXTT1=
EXTT2=
EXTT3=
EXTT4=
EXTT5=
EXTT6=
EXTT7=
EXTT8=
EXTT9=
EXTT10=
EXTT11=
EXTT12=
EXTT13=
EXTT14=
EXTT15=
EXTT16=
EXTT17=
EXTT18=
EXTT19=
EXTT20=
EXTT21=
PLAYORDER=
